<svg width="20" height="24" viewBox="0 0 20 24" fill="none" xmlns="http://www.w3.org/2000/svg">
<path d="M20 24H0V0H20V24Z" stroke="#E5E7EB"/>
<g clip-path="url(#clip0_2_233)">
<path d="M4.5 3C5.16304 3 5.79893 3.26339 6.26777 3.73223C6.73661 4.20107 7 4.83696 7 5.5C7 6.16304 6.73661 6.79893 6.26777 7.26777C5.79893 7.73661 5.16304 8 4.5 8C3.83696 8 3.20107 7.73661 2.73223 7.26777C2.26339 6.79893 2 6.16304 2 5.5C2 4.83696 2.26339 4.20107 2.73223 3.73223C3.20107 3.26339 3.83696 3 4.5 3ZM16 3C16.663 3 17.2989 3.26339 17.7678 3.73223C18.2366 4.20107 18.5 4.83696 18.5 5.5C18.5 6.16304 18.2366 6.79893 17.7678 7.26777C17.2989 7.73661 16.663 8 16 8C15.337 8 14.7011 7.73661 14.2322 7.26777C13.7634 6.79893 13.5 6.16304 13.5 5.5C13.5 4.83696 13.7634 4.20107 14.2322 3.73223C14.7011 3.26339 15.337 3 16 3ZM0 12.3344C0 10.4938 1.49375 9 3.33437 9H4.66875C5.16562 9 5.6375 9.10938 6.0625 9.30312C6.02187 9.52812 6.00313 9.7625 6.00313 10C6.00313 11.1938 6.52812 12.2656 7.35625 13C7.35 13 7.34375 13 7.33437 13H0.665625C0.3 13 0 12.7 0 12.3344ZM12.6656 13C12.6594 13 12.6531 13 12.6438 13C13.475 12.2656 13.9969 11.1938 13.9969 10C13.9969 9.7625 13.975 9.53125 13.9375 9.30312C14.3625 9.10625 14.8344 9 15.3313 9H16.6656C18.5063 9 20 10.4938 20 12.3344C20 12.7031 19.7 13 19.3344 13H12.6656ZM7 10C7 9.20435 7.31607 8.44129 7.87868 7.87868C8.44129 7.31607 9.20435 7 10 7C10.7956 7 11.5587 7.31607 12.1213 7.87868C12.6839 8.44129 13 9.20435 13 10C13 10.7956 12.6839 11.5587 12.1213 12.1213C11.5587 12.6839 10.7956 13 10 13C9.20435 13 8.44129 12.6839 7.87868 12.1213C7.31607 11.5587 7 10.7956 7 10ZM4 18.1656C4 15.8656 5.86562 14 8.16562 14H11.8344C14.1344 14 16 15.8656 16 18.1656C16 18.625 15.6281 19 15.1656 19H4.83437C4.375 19 4 18.6281 4 18.1656Z" fill="white"/>
</g>
<defs>
<clipPath id="clip0_2_233">
<path d="M0 3H20V19H0V3Z" fill="white"/>
</clipPath>
</defs>
</svg>
